<svg xmlns="http://www.w3.org/2000/svg" viewBox="0 0 240 160" fill="none">
  <rect x="10" y="16" width="220" height="128" rx="10" fill="#7c6aff" fill-opacity=".04" stroke="#7c6aff" stroke-opacity=".2"/>

  <rect x="26" y="22" width="188" height="116" rx="8" fill="#111827" fill-opacity=".16" stroke="#94a3b8" stroke-opacity=".35"/>
  <line x1="64" y1="22" x2="64" y2="138" stroke="#94a3b8" stroke-opacity=".55"/>
  <line x1="139" y1="22" x2="139" y2="138" stroke="#94a3b8" stroke-opacity=".35"/>
  <line x1="26" y1="50" x2="214" y2="50" stroke="#94a3b8" stroke-opacity=".55"/>
  <line x1="26" y1="94" x2="214" y2="94" stroke="#94a3b8" stroke-opacity=".35"/>

  <text x="102" y="40" text-anchor="middle" font-family="system-ui" font-size="10" fill="#cbd5e1">A</text>
  <text x="177" y="40" text-anchor="middle" font-family="system-ui" font-size="10" fill="#cbd5e1">A</text>
  <line x1="171" y1="31" x2="183" y2="31" stroke="#cbd5e1" stroke-width="1" stroke-opacity=".9"/>

  <text x="45" y="78" text-anchor="middle" font-family="system-ui" font-size="10" fill="#cbd5e1">B</text>
  <text x="45" y="122" text-anchor="middle" font-family="system-ui" font-size="10" fill="#cbd5e1">B</text>
  <line x1="39" y1="113" x2="51" y2="113" stroke="#cbd5e1" stroke-width="1" stroke-opacity=".9"/>

  <rect x="64" y="50" width="75" height="44" fill="#3dd6c8" fill-opacity=".16"/>
  <rect x="64" y="50" width="75" height="44" stroke="#3dd6c8" stroke-opacity=".65"/>
  <rect x="64" y="50" width="150" height="44" stroke="#f5a623" stroke-opacity=".65"/>

  <rect x="220" y="50" width="6" height="88" rx="3" fill="#f5a623" fill-opacity=".22" stroke="#f5a623" stroke-opacity=".65"/>
  <rect x="220" y="50" width="6" height="44" rx="3" fill="#3dd6c8" fill-opacity=".58"/>

  <text x="102" y="78" text-anchor="middle" font-family="ui-monospace, SFMono-Regular, Menlo, Consolas, monospace" font-size="11" fill="#3dd6c8">28</text>
  <text x="177" y="78" text-anchor="middle" font-family="ui-monospace, SFMono-Regular, Menlo, Consolas, monospace" font-size="11" fill="#cbd5e1">12</text>
  <text x="102" y="122" text-anchor="middle" font-family="ui-monospace, SFMono-Regular, Menlo, Consolas, monospace" font-size="11" fill="#cbd5e1">7</text>
  <text x="177" y="122" text-anchor="middle" font-family="ui-monospace, SFMono-Regular, Menlo, Consolas, monospace" font-size="11" fill="#cbd5e1">953</text>
</svg>
