<svg xmlns="http://www.w3.org/2000/svg" viewBox="0 0 240 160" fill="none">
  <!-- Binomial histogram -->
  <rect x="30" y="120" width="16" height="8" rx="2" fill="#7c6aff" opacity=".25"/>
  <rect x="52" y="100" width="16" height="28" rx="2" fill="#7c6aff" opacity=".35"/>
  <rect x="74" y="70" width="16" height="58" rx="2" fill="#7c6aff" opacity=".5"/>
  <rect x="96" y="40" width="16" height="88" rx="2" fill="#7c6aff" opacity=".7"/>
  <rect x="118" y="25" width="16" height="103" rx="2" fill="#7c6aff" opacity=".9"/>
  <rect x="140" y="40" width="16" height="88" rx="2" fill="#7c6aff" opacity=".7"/>
  <rect x="162" y="70" width="16" height="58" rx="2" fill="#7c6aff" opacity=".5"/>
  <rect x="184" y="100" width="16" height="28" rx="2" fill="#7c6aff" opacity=".35"/>
  <rect x="206" y="120" width="16" height="8" rx="2" fill="#7c6aff" opacity=".25"/>
  <!-- Baseline -->
  <line x1="24" y1="128" x2="228" y2="128" stroke="#7c6aff" stroke-width="1" opacity=".3"/>
  <!-- Bell curve overlay -->
  <path d="M30 124 Q60 96 90 66 Q110 40 126 25 Q142 40 152 66 Q182 96 222 124" stroke="#3dd6c8" stroke-width="2" fill="none" opacity=".6"/>
</svg>
