<svg xmlns="http://www.w3.org/2000/svg" viewBox="0 0 240 160" fill="none">
  <g stroke="#7c6aff" stroke-opacity=".14" stroke-width=".9">
    <line x1="24" y1="30" x2="220" y2="30"/>
    <line x1="24" y1="54" x2="220" y2="54"/>
    <line x1="24" y1="78" x2="220" y2="78"/>
    <line x1="24" y1="102" x2="220" y2="102"/>
    <line x1="24" y1="126" x2="220" y2="126"/>
    <line x1="24" y1="20" x2="24" y2="136"/>
    <line x1="56" y1="20" x2="56" y2="136"/>
    <line x1="88" y1="20" x2="88" y2="136"/>
    <line x1="120" y1="20" x2="120" y2="136"/>
    <line x1="152" y1="20" x2="152" y2="136"/>
    <line x1="184" y1="20" x2="184" y2="136"/>
    <line x1="216" y1="20" x2="216" y2="136"/>
  </g>

  <line x1="24" y1="126" x2="220" y2="126" stroke="#7c6aff" stroke-opacity=".3"/>
  <line x1="24" y1="20" x2="24" y2="136" stroke="#7c6aff" stroke-opacity=".3"/>

  <line x1="24" y1="78" x2="220" y2="78" stroke="#f5a623" stroke-width="1.3" stroke-dasharray="4 3" opacity=".75"/>

  <polyline points="30,112 44,96 58,86 72,80 86,76 100,81 114,74 128,79 142,76 156,78 170,77 184,78 198,77.5 212,78" stroke="#3dd6c8" stroke-width="2" opacity=".75" fill="none"/>
  <circle cx="30" cy="112" r="2" fill="#3dd6c8" fill-opacity=".75"/>
  <circle cx="44" cy="96" r="2" fill="#3dd6c8" fill-opacity=".75"/>
  <circle cx="58" cy="86" r="2" fill="#3dd6c8" fill-opacity=".75"/>
  <circle cx="72" cy="80" r="2" fill="#3dd6c8" fill-opacity=".75"/>
  <circle cx="86" cy="76" r="2" fill="#3dd6c8" fill-opacity=".75"/>
  <circle cx="100" cy="81" r="2" fill="#3dd6c8" fill-opacity=".75"/>
  <circle cx="114" cy="74" r="2" fill="#3dd6c8" fill-opacity=".75"/>
  <circle cx="128" cy="79" r="2" fill="#3dd6c8" fill-opacity=".75"/>
  <circle cx="142" cy="76" r="2" fill="#3dd6c8" fill-opacity=".75"/>
  <circle cx="156" cy="78" r="2" fill="#3dd6c8" fill-opacity=".75"/>
  <circle cx="170" cy="77" r="2" fill="#3dd6c8" fill-opacity=".75"/>
  <circle cx="184" cy="78" r="2" fill="#3dd6c8" fill-opacity=".75"/>
  <circle cx="198" cy="77.5" r="2" fill="#3dd6c8" fill-opacity=".75"/>
  <circle cx="212" cy="78" r="2" fill="#3dd6c8" fill-opacity=".75"/>
</svg>
