<svg xmlns="http://www.w3.org/2000/svg" viewBox="0 0 240 160" fill="none">
  <g stroke="#7c6aff" stroke-opacity=".14" stroke-width=".9">
    <line x1="20" y1="30" x2="220" y2="30"/>
    <line x1="20" y1="55" x2="220" y2="55"/>
    <line x1="20" y1="80" x2="220" y2="80"/>
    <line x1="20" y1="105" x2="220" y2="105"/>
    <line x1="20" y1="130" x2="220" y2="130"/>

    <line x1="20" y1="20" x2="20" y2="140"/>
    <line x1="65" y1="20" x2="65" y2="140"/>
    <line x1="110" y1="20" x2="110" y2="140"/>
    <line x1="155" y1="20" x2="155" y2="140"/>
    <line x1="200" y1="20" x2="200" y2="140"/>
  </g>

  <line x1="20" y1="130" x2="220" y2="130" stroke="#7c6aff" stroke-opacity=".3"/>
  <line x1="20" y1="20" x2="20" y2="140" stroke="#7c6aff" stroke-opacity=".3"/>

  <path d="M20 78 C66 60 112 63 146 56 C176 47 199 29 218 8" stroke="#ff3b30" stroke-width="2.2" opacity=".72" fill="none"/>
  <path d="M20 126 C70 44 150 18 220 122" stroke="#34c759" stroke-width="2.2" opacity=".72" fill="none"/>
  <path d="M20 130 C66 95 102 44 134 56 C164 70 186 118 200 150" stroke="#0a84ff" stroke-width="2.2" opacity=".72" fill="none"/>
  <path d="M20 114 C92 116 154 119 220 123" stroke="#ff9f0a" stroke-width="2.1" opacity=".72" fill="none"/>

</svg>
